<svg xmlns="http://www.w3.org/2000/svg" viewBox="0 0 1600 900" role="img" aria-labelledby="title desc">
  <title id="title">Dental consultation fallback</title>
  <desc id="desc">Fallback consultation illustration for dental articles.</desc>
  <defs>
    <linearGradient id="bg" x1="0" x2="1" y1="0" y2="1">
      <stop offset="0%" stop-color="#fff9f1"/>
      <stop offset="100%" stop-color="#ffe9cf"/>
    </linearGradient>
  </defs>
  <rect width="1600" height="900" fill="url(#bg)"/>
  <rect x="220" y="140" width="1160" height="620" rx="52" fill="#fffdf9"/>
  <rect x="320" y="250" width="420" height="360" rx="36" fill="#eff7f4"/>
  <rect x="860" y="240" width="360" height="36" rx="18" fill="#eadfce"/>
  <rect x="860" y="318" width="280" height="28" rx="14" fill="#eadfce"/>
  <rect x="860" y="392" width="310" height="28" rx="14" fill="#eadfce"/>
  <rect x="860" y="466" width="250" height="28" rx="14" fill="#eadfce"/>
  <rect x="860" y="560" width="210" height="86" rx="30" fill="#dff6b8"/>
  <g transform="translate(420 250)">
    <circle cx="110" cy="92" r="70" fill="#23463f"/>
    <rect x="44" y="170" width="132" height="150" rx="42" fill="#2f7d6a"/>
    <rect x="188" y="92" width="112" height="206" rx="34" fill="#ffffff"/>
    <path d="M244 122c27 0 48 20 48 46 0 16-6 29-10 45-4 13-3 31-8 44-4 14-15 22-30 22s-26-8-30-22c-5-13-4-31-8-44-4-16-10-29-10-45 0-26 21-46 48-46z" fill="#2f7d6a"/>
    <rect x="196" y="198" width="96" height="18" rx="9" fill="#dff6b8"/>
  </g>
</svg>
